<svg width="86" height="86" viewBox="0 0 86 86" fill="none" xmlns="http://www.w3.org/2000/svg">
<path fill-rule="evenodd" clip-rule="evenodd" d="M32.25 5.375H20.1562C16.4439 5.375 13.4375 8.385 13.4375 12.0937V73.9062C13.4375 77.615 16.4475 80.625 20.1562 80.625H65.8437C69.5525 80.625 72.5625 77.615 72.5625 73.9062V45.6875C72.5625 42.1237 71.1468 38.7058 68.6267 36.1858C66.1067 33.6657 62.6888 32.25 59.125 32.25H52.4062C50.6243 32.25 48.9154 31.5421 47.6554 30.2821C46.3954 29.0221 45.6875 27.3132 45.6875 25.5312V18.8125C45.6875 15.2487 44.2718 11.8308 41.7517 9.31075C39.2317 6.79073 35.8138 5.375 32.25 5.375V5.375ZM55.9358 44.5623C56.1508 44.2758 56.3064 43.9493 56.3934 43.6018C56.4804 43.2544 56.497 42.893 56.4423 42.539C56.3877 42.185 56.2628 41.8455 56.0751 41.5405C55.8873 41.2355 55.6405 40.971 55.3491 40.7627C55.0577 40.5545 54.7276 40.4065 54.3782 40.3277C54.0288 40.2488 53.6672 40.2405 53.3145 40.3034C52.9619 40.3663 52.6254 40.499 52.3248 40.6938C52.0242 40.8886 51.7656 41.1415 51.5642 41.4377L39.9685 57.6702L34.1492 51.8508C33.6397 51.3761 32.9659 51.1177 32.2696 51.13C31.5734 51.1422 30.9091 51.4243 30.4167 51.9167C29.9243 52.4091 29.6422 53.0734 29.63 53.7696C29.6177 54.4659 29.8761 55.1397 30.3508 55.6492L38.4133 63.7117C38.6892 63.9873 39.0218 64.1997 39.388 64.3339C39.7541 64.4681 40.1451 64.5211 40.5338 64.489C40.9225 64.457 41.2996 64.3407 41.6388 64.1483C41.978 63.9559 42.2713 63.692 42.4983 63.3748L55.9358 44.5623Z" fill="#00A0E9"/>
<path fill-rule="evenodd" clip-rule="evenodd" d="M32.25 5.375H20.1562C16.4439 5.375 13.4375 8.385 13.4375 12.0937V73.9062C13.4375 77.615 16.4475 80.625 20.1562 80.625H65.8437C69.5525 80.625 72.5625 77.615 72.5625 73.9062V45.6875C72.5625 42.1237 71.1468 38.7058 68.6267 36.1858C66.1067 33.6657 62.6888 32.25 59.125 32.25H52.4062C50.6243 32.25 48.9154 31.5421 47.6554 30.2821C46.3954 29.0221 45.6875 27.3132 45.6875 25.5312V18.8125C45.6875 15.2487 44.2718 11.8308 41.7517 9.31075C39.2317 6.79073 35.8138 5.375 32.25 5.375V5.375ZM55.9358 44.5623C56.1508 44.2758 56.3064 43.9493 56.3934 43.6018C56.4804 43.2544 56.497 42.893 56.4423 42.539C56.3877 42.185 56.2628 41.8455 56.0751 41.5405C55.8873 41.2355 55.6405 40.971 55.3491 40.7627C55.0577 40.5545 54.7276 40.4065 54.3782 40.3277C54.0288 40.2488 53.6672 40.2405 53.3145 40.3034C52.9619 40.3663 52.6254 40.499 52.3248 40.6938C52.0242 40.8886 51.7656 41.1415 51.5642 41.4377L39.9685 57.6702L34.1492 51.8508C33.6397 51.3761 32.9659 51.1177 32.2696 51.13C31.5734 51.1422 30.9091 51.4243 30.4167 51.9167C29.9243 52.4091 29.6422 53.0734 29.63 53.7696C29.6177 54.4659 29.8761 55.1397 30.3508 55.6492L38.4133 63.7117C38.6892 63.9873 39.0218 64.1997 39.388 64.3339C39.7541 64.4681 40.1451 64.5211 40.5338 64.489C40.9225 64.457 41.2996 64.3407 41.6388 64.1483C41.978 63.9559 42.2713 63.692 42.4983 63.3748L55.9358 44.5623Z" fill="url(#paint0_linear_18_192)" fill-opacity="0.8"/>
<path d="M46.4794 6.50732C49.4411 9.92211 51.0688 14.2923 51.0625 18.8125V25.5312C51.0625 26.273 51.6645 26.875 52.4063 26.875H59.125C63.6452 26.8687 68.0154 28.4964 71.4302 31.4581C69.8536 25.4621 66.7128 19.9925 62.3289 15.6086C57.945 11.2247 52.4754 8.08386 46.4794 6.50732Z" fill="#00A0E9"/>
<path d="M46.4794 6.50732C49.4411 9.92211 51.0688 14.2923 51.0625 18.8125V25.5312C51.0625 26.273 51.6645 26.875 52.4063 26.875H59.125C63.6452 26.8687 68.0154 28.4964 71.4302 31.4581C69.8536 25.4621 66.7128 19.9925 62.3289 15.6086C57.945 11.2247 52.4754 8.08386 46.4794 6.50732Z" fill="url(#paint1_linear_18_192)" fill-opacity="0.8"/>
<defs>
<linearGradient id="paint0_linear_18_192" x1="43" y1="5.375" x2="43" y2="80.625" gradientUnits="userSpaceOnUse">
<stop stop-color="#187BD7" stop-opacity="0"/>
<stop offset="1" stop-color="#187BD7"/>
</linearGradient>
<linearGradient id="paint1_linear_18_192" x1="58.9548" y1="6.50732" x2="58.9548" y2="31.4581" gradientUnits="userSpaceOnUse">
<stop stop-color="#187BD7" stop-opacity="0"/>
<stop offset="1" stop-color="#187BD7"/>
</linearGradient>
</defs>
</svg>
