<svg width="70" height="70" viewBox="0 0 70 70" fill="none" xmlns="http://www.w3.org/2000/svg">
<path fill-rule="evenodd" clip-rule="evenodd" d="M21.5625 0.0625C22.2753 0.0625 22.9588 0.345646 23.4628 0.84965C23.9669 1.35365 24.25 2.03723 24.25 2.75V5.4375H32.3125V2.75C32.3125 2.03723 32.5956 1.35365 33.0997 0.84965C33.6037 0.345646 34.2872 0.0625 35 0.0625C35.7128 0.0625 36.3963 0.345646 36.9003 0.84965C37.4044 1.35365 37.6875 2.03723 37.6875 2.75V5.4375H45.75V2.75C45.75 2.03723 46.0331 1.35365 46.5372 0.84965C47.0412 0.345646 47.7247 0.0625 48.4375 0.0625C49.1503 0.0625 49.8338 0.345646 50.3378 0.84965C50.8419 1.35365 51.125 2.03723 51.125 2.75V5.4375H53.8125C56.6636 5.4375 59.3979 6.57009 61.4139 8.5861C63.4299 10.6021 64.5625 13.3364 64.5625 16.1875V18.875H67.25C67.9628 18.875 68.6463 19.1581 69.1504 19.6621C69.6544 20.1662 69.9375 20.8497 69.9375 21.5625C69.9375 22.2753 69.6544 22.9588 69.1504 23.4628C68.6463 23.9669 67.9628 24.25 67.25 24.25H64.5625V32.3125H67.25C67.9628 32.3125 68.6463 32.5956 69.1504 33.0997C69.6544 33.6037 69.9375 34.2872 69.9375 35C69.9375 35.7128 69.6544 36.3963 69.1504 36.9003C68.6463 37.4044 67.9628 37.6875 67.25 37.6875H64.5625V45.75H67.25C67.9628 45.75 68.6463 46.0331 69.1504 46.5372C69.6544 47.0412 69.9375 47.7247 69.9375 48.4375C69.9375 49.1503 69.6544 49.8338 69.1504 50.3378C68.6463 50.8419 67.9628 51.125 67.25 51.125H64.5625V53.8125C64.5625 56.6636 63.4299 59.3979 61.4139 61.4139C59.3979 63.4299 56.6636 64.5625 53.8125 64.5625H51.125V67.25C51.125 67.9628 50.8419 68.6463 50.3378 69.1504C49.8338 69.6544 49.1503 69.9375 48.4375 69.9375C47.7247 69.9375 47.0412 69.6544 46.5372 69.1504C46.0331 68.6463 45.75 67.9628 45.75 67.25V64.5625H37.6875V67.25C37.6875 67.9628 37.4044 68.6463 36.9003 69.1504C36.3963 69.6544 35.7128 69.9375 35 69.9375C34.2872 69.9375 33.6037 69.6544 33.0997 69.1504C32.5956 68.6463 32.3125 67.9628 32.3125 67.25V64.5625H24.25V67.25C24.25 67.9628 23.9669 68.6463 23.4628 69.1504C22.9588 69.6544 22.2753 69.9375 21.5625 69.9375C20.8497 69.9375 20.1662 69.6544 19.6621 69.1504C19.1581 68.6463 18.875 67.9628 18.875 67.25V64.5625H16.1875C13.3364 64.5625 10.6021 63.4299 8.5861 61.4139C6.57009 59.3979 5.4375 56.6636 5.4375 53.8125V51.125H2.75C2.03723 51.125 1.35365 50.8419 0.84965 50.3378C0.345646 49.8338 0.0625 49.1503 0.0625 48.4375C0.0625 47.7247 0.345646 47.0412 0.84965 46.5372C1.35365 46.0331 2.03723 45.75 2.75 45.75H5.4375V37.6875H2.75C2.03723 37.6875 1.35365 37.4044 0.84965 36.9003C0.345646 36.3963 0.0625 35.7128 0.0625 35C0.0625 34.2872 0.345646 33.6037 0.84965 33.0997C1.35365 32.5956 2.03723 32.3125 2.75 32.3125H5.4375V24.25H2.75C2.03723 24.25 1.35365 23.9669 0.84965 23.4628C0.345646 22.9588 0.0625 22.2753 0.0625 21.5625C0.0625 20.8497 0.345646 20.1662 0.84965 19.6621C1.35365 19.1581 2.03723 18.875 2.75 18.875H5.4375V16.1875C5.4375 13.3364 6.57009 10.6021 8.5861 8.5861C10.6021 6.57009 13.3364 5.4375 16.1875 5.4375H18.875V2.75C18.875 2.03723 19.1581 1.35365 19.6621 0.84965C20.1662 0.345646 20.8497 0.0625 21.5625 0.0625ZM13.5 16.1875C13.5 15.4747 13.7831 14.7912 14.2871 14.2871C14.7912 13.7831 15.4747 13.5 16.1875 13.5H53.8125C54.5253 13.5 55.2088 13.7831 55.7128 14.2871C56.2169 14.7912 56.5 15.4747 56.5 16.1875V53.8125C56.5 54.5253 56.2169 55.2088 55.7128 55.7128C55.2088 56.2169 54.5253 56.5 53.8125 56.5H16.1875C15.4747 56.5 14.7912 56.2169 14.2871 55.7128C13.7831 55.2088 13.5 54.5253 13.5 53.8125V16.1875Z" fill="#00A0E9"/>
<path fill-rule="evenodd" clip-rule="evenodd" d="M21.5625 0.0625C22.2753 0.0625 22.9588 0.345646 23.4628 0.84965C23.9669 1.35365 24.25 2.03723 24.25 2.75V5.4375H32.3125V2.75C32.3125 2.03723 32.5956 1.35365 33.0997 0.84965C33.6037 0.345646 34.2872 0.0625 35 0.0625C35.7128 0.0625 36.3963 0.345646 36.9003 0.84965C37.4044 1.35365 37.6875 2.03723 37.6875 2.75V5.4375H45.75V2.75C45.75 2.03723 46.0331 1.35365 46.5372 0.84965C47.0412 0.345646 47.7247 0.0625 48.4375 0.0625C49.1503 0.0625 49.8338 0.345646 50.3378 0.84965C50.8419 1.35365 51.125 2.03723 51.125 2.75V5.4375H53.8125C56.6636 5.4375 59.3979 6.57009 61.4139 8.5861C63.4299 10.6021 64.5625 13.3364 64.5625 16.1875V18.875H67.25C67.9628 18.875 68.6463 19.1581 69.1504 19.6621C69.6544 20.1662 69.9375 20.8497 69.9375 21.5625C69.9375 22.2753 69.6544 22.9588 69.1504 23.4628C68.6463 23.9669 67.9628 24.25 67.25 24.25H64.5625V32.3125H67.25C67.9628 32.3125 68.6463 32.5956 69.1504 33.0997C69.6544 33.6037 69.9375 34.2872 69.9375 35C69.9375 35.7128 69.6544 36.3963 69.1504 36.9003C68.6463 37.4044 67.9628 37.6875 67.25 37.6875H64.5625V45.75H67.25C67.9628 45.75 68.6463 46.0331 69.1504 46.5372C69.6544 47.0412 69.9375 47.7247 69.9375 48.4375C69.9375 49.1503 69.6544 49.8338 69.1504 50.3378C68.6463 50.8419 67.9628 51.125 67.25 51.125H64.5625V53.8125C64.5625 56.6636 63.4299 59.3979 61.4139 61.4139C59.3979 63.4299 56.6636 64.5625 53.8125 64.5625H51.125V67.25C51.125 67.9628 50.8419 68.6463 50.3378 69.1504C49.8338 69.6544 49.1503 69.9375 48.4375 69.9375C47.7247 69.9375 47.0412 69.6544 46.5372 69.1504C46.0331 68.6463 45.75 67.9628 45.75 67.25V64.5625H37.6875V67.25C37.6875 67.9628 37.4044 68.6463 36.9003 69.1504C36.3963 69.6544 35.7128 69.9375 35 69.9375C34.2872 69.9375 33.6037 69.6544 33.0997 69.1504C32.5956 68.6463 32.3125 67.9628 32.3125 67.25V64.5625H24.25V67.25C24.25 67.9628 23.9669 68.6463 23.4628 69.1504C22.9588 69.6544 22.2753 69.9375 21.5625 69.9375C20.8497 69.9375 20.1662 69.6544 19.6621 69.1504C19.1581 68.6463 18.875 67.9628 18.875 67.25V64.5625H16.1875C13.3364 64.5625 10.6021 63.4299 8.5861 61.4139C6.57009 59.3979 5.4375 56.6636 5.4375 53.8125V51.125H2.75C2.03723 51.125 1.35365 50.8419 0.84965 50.3378C0.345646 49.8338 0.0625 49.1503 0.0625 48.4375C0.0625 47.7247 0.345646 47.0412 0.84965 46.5372C1.35365 46.0331 2.03723 45.75 2.75 45.75H5.4375V37.6875H2.75C2.03723 37.6875 1.35365 37.4044 0.84965 36.9003C0.345646 36.3963 0.0625 35.7128 0.0625 35C0.0625 34.2872 0.345646 33.6037 0.84965 33.0997C1.35365 32.5956 2.03723 32.3125 2.75 32.3125H5.4375V24.25H2.75C2.03723 24.25 1.35365 23.9669 0.84965 23.4628C0.345646 22.9588 0.0625 22.2753 0.0625 21.5625C0.0625 20.8497 0.345646 20.1662 0.84965 19.6621C1.35365 19.1581 2.03723 18.875 2.75 18.875H5.4375V16.1875C5.4375 13.3364 6.57009 10.6021 8.5861 8.5861C10.6021 6.57009 13.3364 5.4375 16.1875 5.4375H18.875V2.75C18.875 2.03723 19.1581 1.35365 19.6621 0.84965C20.1662 0.345646 20.8497 0.0625 21.5625 0.0625ZM13.5 16.1875C13.5 15.4747 13.7831 14.7912 14.2871 14.2871C14.7912 13.7831 15.4747 13.5 16.1875 13.5H53.8125C54.5253 13.5 55.2088 13.7831 55.7128 14.2871C56.2169 14.7912 56.5 15.4747 56.5 16.1875V53.8125C56.5 54.5253 56.2169 55.2088 55.7128 55.7128C55.2088 56.2169 54.5253 56.5 53.8125 56.5H16.1875C15.4747 56.5 14.7912 56.2169 14.2871 55.7128C13.7831 55.2088 13.5 54.5253 13.5 53.8125V16.1875Z" fill="url(#paint0_linear_18_186)" fill-opacity="0.8"/>
<defs>
<linearGradient id="paint0_linear_18_186" x1="35" y1="0.0625" x2="35" y2="69.9375" gradientUnits="userSpaceOnUse">
<stop stop-color="#187BD7" stop-opacity="0"/>
<stop offset="1" stop-color="#187BD7"/>
</linearGradient>
</defs>
</svg>
