<svg width="76" height="65" viewBox="0 0 76 65" fill="none" xmlns="http://www.w3.org/2000/svg">
<path d="M21.8499 59.1875C20.327 59.1875 18.9116 58.3418 18.3561 56.9228C17.1261 53.792 16.4964 50.4576 16.5 47.0938C16.5 40.8229 18.6464 35.0609 22.2405 30.4886C22.7816 29.8006 23.5771 29.3813 24.3905 29.066C26.0854 28.4102 27.5796 27.2242 28.7335 25.755C31.5151 22.2062 35.0069 19.2771 38.9854 17.155C41.5761 15.779 43.8229 13.7293 44.9086 11.0096C45.6712 9.10415 46.0628 7.07061 46.0625 5.01825V2.75C46.0625 2.03723 46.3456 1.35365 46.8496 0.84965C47.3536 0.345646 48.0372 0.0625 48.75 0.0625C50.8883 0.0625 52.939 0.911939 54.451 2.42395C55.963 3.93596 56.8125 5.98669 56.8125 8.125C56.8125 12.253 55.8808 16.1624 54.2217 19.6562C53.2686 21.6557 54.6051 24.25 56.8196 24.25H68.0211C71.6976 24.25 74.9907 26.7368 75.3813 30.3954C75.5426 31.9076 75.625 33.4412 75.625 35C75.6398 44.8052 72.2891 54.3186 66.1327 61.9502C64.7424 63.6774 62.596 64.5625 60.3815 64.5625H45.9908C44.2601 64.5625 42.5365 64.283 40.8917 63.7383L29.7332 60.0117C28.0888 59.4648 26.3671 59.1865 24.6341 59.1875H21.8499ZM3.35273 31.3342C1.37802 36.3534 0.367779 41.7001 0.374977 47.0938C0.370452 51.3518 0.998415 55.5869 2.23831 59.6605C3.16998 62.7063 6.12264 64.5625 9.30823 64.5625H12.5583C14.1529 64.5625 15.1383 62.778 14.4324 61.3447C12.2471 56.9123 11.114 52.0355 11.1214 47.0938C11.1214 40.9734 12.8271 35.2508 15.7869 30.3739C16.6648 28.9298 15.6866 26.9375 13.9952 26.9375H10.2291C7.24781 26.9375 4.45281 28.5608 3.35631 31.3342H3.35273Z" fill="#00A0E9"/>
<path d="M21.8499 59.1875C20.327 59.1875 18.9116 58.3418 18.3561 56.9228C17.1261 53.792 16.4964 50.4576 16.5 47.0938C16.5 40.8229 18.6464 35.0609 22.2405 30.4886C22.7816 29.8006 23.5771 29.3813 24.3905 29.066C26.0854 28.4102 27.5796 27.2242 28.7335 25.755C31.5151 22.2062 35.0069 19.2771 38.9854 17.155C41.5761 15.779 43.8229 13.7293 44.9086 11.0096C45.6712 9.10415 46.0628 7.07061 46.0625 5.01825V2.75C46.0625 2.03723 46.3456 1.35365 46.8496 0.84965C47.3536 0.345646 48.0372 0.0625 48.75 0.0625C50.8883 0.0625 52.939 0.911939 54.451 2.42395C55.963 3.93596 56.8125 5.98669 56.8125 8.125C56.8125 12.253 55.8808 16.1624 54.2217 19.6562C53.2686 21.6557 54.6051 24.25 56.8196 24.25H68.0211C71.6976 24.25 74.9907 26.7368 75.3813 30.3954C75.5426 31.9076 75.625 33.4412 75.625 35C75.6398 44.8052 72.2891 54.3186 66.1327 61.9502C64.7424 63.6774 62.596 64.5625 60.3815 64.5625H45.9908C44.2601 64.5625 42.5365 64.283 40.8917 63.7383L29.7332 60.0117C28.0888 59.4648 26.3671 59.1865 24.6341 59.1875H21.8499ZM3.35273 31.3342C1.37802 36.3534 0.367779 41.7001 0.374977 47.0938C0.370452 51.3518 0.998415 55.5869 2.23831 59.6605C3.16998 62.7063 6.12264 64.5625 9.30823 64.5625H12.5583C14.1529 64.5625 15.1383 62.778 14.4324 61.3447C12.2471 56.9123 11.114 52.0355 11.1214 47.0938C11.1214 40.9734 12.8271 35.2508 15.7869 30.3739C16.6648 28.9298 15.6866 26.9375 13.9952 26.9375H10.2291C7.24781 26.9375 4.45281 28.5608 3.35631 31.3342H3.35273Z" fill="url(#paint0_linear_18_183)" fill-opacity="0.8"/>
<defs>
<linearGradient id="paint0_linear_18_183" x1="38" y1="0.0625" x2="38" y2="64.5625" gradientUnits="userSpaceOnUse">
<stop stop-color="#187BD7" stop-opacity="0"/>
<stop offset="1" stop-color="#187BD7"/>
</linearGradient>
</defs>
</svg>
