<svg width="76" height="70" viewBox="0 0 76 70" fill="none" xmlns="http://www.w3.org/2000/svg">
<path d="M11.125 14.8438C11.125 10.9235 12.6823 7.16385 15.4543 4.39183C18.2264 1.61981 21.986 0.0625 25.9062 0.0625C29.8265 0.0625 33.5862 1.61981 36.3582 4.39183C39.1302 7.16385 40.6875 10.9235 40.6875 14.8438C40.6875 18.764 39.1302 22.5237 36.3582 25.2957C33.5862 28.0677 29.8265 29.625 25.9062 29.625C21.986 29.625 18.2264 28.0677 15.4543 25.2957C12.6823 22.5237 11.125 18.764 11.125 14.8438ZM46.0625 22.9062C46.0625 21.3181 46.3753 19.7455 46.9831 18.2782C47.5908 16.8109 48.4817 15.4777 49.6047 14.3547C50.7277 13.2317 52.0609 12.3408 53.5282 11.7331C54.9954 11.1253 56.5681 10.8125 58.1562 10.8125C59.7444 10.8125 61.317 11.1253 62.7843 11.7331C64.2516 12.3408 65.5848 13.2317 66.7078 14.3547C67.8308 15.4777 68.7216 16.8109 69.3294 18.2782C69.9372 19.7455 70.25 21.3181 70.25 22.9062C70.25 26.1137 68.9758 29.1898 66.7078 31.4578C64.4398 33.7258 61.3637 35 58.1562 35C54.9488 35 51.8727 33.7258 49.6047 31.4578C47.3367 29.1898 46.0625 26.1137 46.0625 22.9062ZM0.375 60.5312C0.375 53.7599 3.06489 47.266 7.85293 42.4779C12.641 37.6899 19.1349 35 25.9062 35C32.6776 35 39.1715 37.6899 43.9596 42.4779C48.7476 47.266 51.4375 53.7599 51.4375 60.5312V60.542L51.4339 60.9684C51.4263 61.4241 51.3029 61.8704 51.0754 62.2653C50.8479 62.6602 50.5236 62.9908 50.1332 63.2259C42.8203 67.6297 34.4427 69.9506 25.9062 69.9375C17.0483 69.9375 8.75642 67.4865 1.68292 63.2259C1.2918 62.9912 0.966848 62.6609 0.73866 62.2659C0.510472 61.871 0.386557 61.4245 0.378584 60.9684L0.375 60.5312ZM56.8125 60.542L56.8089 61.058C56.7889 62.2524 56.5037 63.4273 55.974 64.498C62.2294 64.8838 68.4777 63.6366 74.1057 60.8788C74.5409 60.6661 74.9105 60.3396 75.1755 59.934C75.4404 59.5285 75.5908 59.0588 75.6107 58.5747C75.7372 55.5692 75.0854 52.5819 73.7184 49.9022C72.3514 47.2225 70.3156 44.9412 67.8081 43.2793C65.3007 41.6174 62.4065 40.6311 59.406 40.4161C56.4054 40.2011 53.4002 40.7646 50.6814 42.052C54.6704 47.3861 56.8206 53.8706 56.8089 60.5312V60.542H56.8125Z" fill="#00A0E9"/>
<path d="M11.125 14.8438C11.125 10.9235 12.6823 7.16385 15.4543 4.39183C18.2264 1.61981 21.986 0.0625 25.9062 0.0625C29.8265 0.0625 33.5862 1.61981 36.3582 4.39183C39.1302 7.16385 40.6875 10.9235 40.6875 14.8438C40.6875 18.764 39.1302 22.5237 36.3582 25.2957C33.5862 28.0677 29.8265 29.625 25.9062 29.625C21.986 29.625 18.2264 28.0677 15.4543 25.2957C12.6823 22.5237 11.125 18.764 11.125 14.8438ZM46.0625 22.9062C46.0625 21.3181 46.3753 19.7455 46.9831 18.2782C47.5908 16.8109 48.4817 15.4777 49.6047 14.3547C50.7277 13.2317 52.0609 12.3408 53.5282 11.7331C54.9954 11.1253 56.5681 10.8125 58.1562 10.8125C59.7444 10.8125 61.317 11.1253 62.7843 11.7331C64.2516 12.3408 65.5848 13.2317 66.7078 14.3547C67.8308 15.4777 68.7216 16.8109 69.3294 18.2782C69.9372 19.7455 70.25 21.3181 70.25 22.9062C70.25 26.1137 68.9758 29.1898 66.7078 31.4578C64.4398 33.7258 61.3637 35 58.1562 35C54.9488 35 51.8727 33.7258 49.6047 31.4578C47.3367 29.1898 46.0625 26.1137 46.0625 22.9062ZM0.375 60.5312C0.375 53.7599 3.06489 47.266 7.85293 42.4779C12.641 37.6899 19.1349 35 25.9062 35C32.6776 35 39.1715 37.6899 43.9596 42.4779C48.7476 47.266 51.4375 53.7599 51.4375 60.5312V60.542L51.4339 60.9684C51.4263 61.4241 51.3029 61.8704 51.0754 62.2653C50.8479 62.6602 50.5236 62.9908 50.1332 63.2259C42.8203 67.6297 34.4427 69.9506 25.9062 69.9375C17.0483 69.9375 8.75642 67.4865 1.68292 63.2259C1.2918 62.9912 0.966848 62.6609 0.73866 62.2659C0.510472 61.871 0.386557 61.4245 0.378584 60.9684L0.375 60.5312ZM56.8125 60.542L56.8089 61.058C56.7889 62.2524 56.5037 63.4273 55.974 64.498C62.2294 64.8838 68.4777 63.6366 74.1057 60.8788C74.5409 60.6661 74.9105 60.3396 75.1755 59.934C75.4404 59.5285 75.5908 59.0588 75.6107 58.5747C75.7372 55.5692 75.0854 52.5819 73.7184 49.9022C72.3514 47.2225 70.3156 44.9412 67.8081 43.2793C65.3007 41.6174 62.4065 40.6311 59.406 40.4161C56.4054 40.2011 53.4002 40.7646 50.6814 42.052C54.6704 47.3861 56.8206 53.8706 56.8089 60.5312V60.542H56.8125Z" fill="url(#paint0_linear_18_181)" fill-opacity="0.8"/>
<defs>
<linearGradient id="paint0_linear_18_181" x1="38.0006" y1="0.0625" x2="38.0006" y2="69.9376" gradientUnits="userSpaceOnUse">
<stop stop-color="#187BD7" stop-opacity="0"/>
<stop offset="1" stop-color="#187BD7"/>
</linearGradient>
</defs>
</svg>
